<svg xmlns="http://www.w3.org/2000/svg" width="430" height="430" style="width:100%;height:100%;transform:translate3d(0,0,0);content-visibility:visible" viewBox="0 0 430 430"><defs><clipPath id="c"><path d="M0 0h430v430H0z"/></clipPath><clipPath id="l"><path d="M0 0h430v430H0z"/></clipPath><clipPath id="k"><path d="M0 0h430v430H0z"/></clipPath><clipPath id="h"><path d="M0 0h430v430H0z"/></clipPath><clipPath id="j"><path d="M0 0h430v430H0z"/></clipPath><clipPath id="i"><path d="M0 0h430v430H0z"/></clipPath><clipPath id="f"><path d="M0 0h430v430H0z"/></clipPath><clipPath id="g"><path d="M0 0h430v430H0z"/></clipPath><clipPath id="d"><path d="M0 0h430v430H0z"/></clipPath><filter id="a" width="100%" height="100%" x="0%" y="0%" filterUnits="objectBoundingBox"><feComponentTransfer in="SourceGraphic"><feFuncA tableValues="1.0 0.0" type="table"/></feComponentTransfer></filter><path id="b" style="display:none"/><mask id="e" mask-type="alpha"><g filter="url(#a)"><path fill="#fff" d="M0 0h430v430H0z" opacity="0"/><use xmlns:ns1="http://www.w3.org/1999/xlink" ns1:href="#b"/></g></mask></defs><g fill="none" clip-path="url(#c)"><g clip-path="url(#d)" style="display:none"><path class="primary" style="display:none"/><g style="display:none"><path class="primary"/><path class="primary"/></g><path class="secondary" style="display:none"/><g mask="url(#e)" style="display:none"><path class="primary"/><path class="primary"/></g><path class="secondary" style="display:none"/><path class="secondary" style="display:none"/><path class="primary" style="display:none"/><path class="secondary" style="display:none"/><path class="secondary" style="display:none"/><path class="secondary" style="display:none"/><path class="secondary" style="display:none"/><path class="secondary" style="display:none"/><path class="secondary" style="display:none"/><path class="secondary" style="display:none"/><path class="secondary" style="display:none"/></g><g clip-path="url(#f)" style="display:none"><g clip-path="url(#g)" style="display:none"><path class="primary" style="display:none"/><path class="primary" style="display:none"/><path class="primary" style="display:none"/><path class="primary" style="display:none"/><path class="primary" style="display:none"/><path class="primary" style="display:none"/><path class="primary" style="display:none"/><path class="secondary" style="display:none"/><path class="secondary" style="display:none"/><path class="secondary" style="display:none"/></g><path class="secondary" style="display:none"/><path class="secondary" style="display:none"/></g><g clip-path="url(#h)" style="display:none"><g clip-path="url(#i)" style="display:none"><path class="primary" style="display:none"/><path class="primary" style="display:none"/><path class="primary" style="display:none"/><path class="primary" style="display:none"/><path class="primary" style="display:none"/><path class="primary" style="display:none"/><path class="primary" style="display:none"/><path class="secondary" style="display:none"/><path class="secondary" style="display:none"/><path class="secondary" style="display:none"/></g><g clip-path="url(#j)" style="display:none"><path class="primary" style="display:none"/><path class="primary" style="display:none"/><path class="primary" style="display:none"/><path class="primary" style="display:none"/><path class="primary" style="display:none"/><path class="primary" style="display:none"/><path class="primary" style="display:none"/><path class="secondary" style="display:none"/><path class="secondary" style="display:none"/><path class="secondary" style="display:none"/></g><path class="secondary" style="display:none"/><path class="secondary" style="display:none"/></g><g stroke-linecap="round" stroke-width="14" clip-path="url(#k)" style="display:block"><path stroke="#121330" stroke-linejoin="round" d="m-172.938-104.938.5 50L11.5-8l183-48 .5-49m.034 0L11-152.5-173.034-105 11-57.5z" class="primary" style="display:block" transform="matrix(.9 0 0 .9 204.65 220.85)"/><path stroke="#121330" stroke-linejoin="round" d="M170.124-48.5 12-9.5l-159.938-36.938.419 89.14.464 98.861L11.91 189.5l158.233-49-.01-97.004zM11.75-10.188l.074 76.007.121 123.369" class="primary" style="display:block" transform="matrix(.9 0 0 .9 204.65 220.85)"/><path stroke="#07A889" stroke-linejoin="round" d="m-87.742 170.495.262-100.961.206-92.284-14.863-4.25.137-47L0-107.304m87.588 277.799-.347-106.99-.244-87.255 14.866-4.75L102-74 0-107.196" class="secondary" style="display:block" transform="matrix(.9 0 0 .9 215 215)"/><path stroke="#07A889" d="M1.479-105.144C-236-138.013-48.646-304.002 3.944-102.679" class="secondary" style="display:block" transform="matrix(.9 0 0 .9 214.1 211.4)"/><path stroke="#07A889" d="M4.416-105.144c234.526-32.869 49.502-198.858-2.434 2.465" class="secondary" style="display:block" transform="matrix(.9 0 0 .9 213.75 211.4)"/></g><g clip-path="url(#l)" style="display:none"><path class="primary" style="display:none"/><path class="primary" style="display:none"/><path class="secondary" style="display:none"/><path class="secondary" style="display:none"/><path class="secondary" style="display:none"/></g></g></svg>